<svg width="24" height="24" viewBox="0 0 24 24" fill="none" xmlns="http://www.w3.org/2000/svg">
<path d="M2 21C3.333 21.622 5.083 22 7 22C8.917 22 10.668 21.622 12 21C13.332 20.378 15.083 20 17 20C18.917 20 20.668 20.378 22 21M12 18C10.668 18.622 8.917 19 7 19C5.934 19 4.92 18.883 4 18.673C3.409 18.537 3.113 18.47 2.759 18.189C2.52733 17.9907 2.33558 17.7501 2.194 17.48C2 17.073 2 16.677 2 15.886V5.114C2 4.129 3.04 3.453 4 3.673C4.92 3.883 5.934 4 7 4C8.917 4 10.668 3.622 12 3C13.332 2.378 15.083 2 17 2C18.066 2 19.08 2.117 20 2.327C20.591 2.463 20.887 2.531 21.241 2.811C21.443 2.971 21.695 3.287 21.806 3.52C22 3.928 22 4.323 22 5.114V15.886C22 16.871 20.96 17.547 20 17.327C19.08 17.117 18.066 17 17 17C15.083 17 13.332 17.378 12 18Z" stroke="#6C727E" stroke-width="1.5" stroke-linecap="round" stroke-linejoin="round"/>
<path d="M5.5 11.5V11.509M18.5 9.492V9.502M14.5 10.5C14.5 11.163 14.2366 11.7989 13.7678 12.2678C13.2989 12.7366 12.663 13 12 13C11.337 13 10.7011 12.7366 10.2322 12.2678C9.76339 11.7989 9.5 11.163 9.5 10.5C9.5 9.83696 9.76339 9.20107 10.2322 8.73223C10.7011 8.26339 11.337 8 12 8C12.663 8 13.2989 8.26339 13.7678 8.73223C14.2366 9.20107 14.5 9.83696 14.5 10.5Z" stroke="#6C727E" stroke-width="1.5" stroke-linecap="round" stroke-linejoin="round"/>
</svg>
