<svg width="24" height="24" viewBox="0 0 24 24" fill="none" xmlns="http://www.w3.org/2000/svg">
<path d="M17 21C18.1046 21 19 20.1046 19 19C19 17.8954 18.1046 17 17 17C15.8954 17 15 17.8954 15 19C15 20.1046 15.8954 21 17 21Z" stroke="#F0F1F1" stroke-width="1.5" stroke-linecap="round" stroke-linejoin="round"/>
<path d="M7 21C8.10457 21 9 20.1046 9 19C9 17.8954 8.10457 17 7 17C5.89543 17 5 17.8954 5 19C5 20.1046 5.89543 21 7 21Z" stroke="#F0F1F1" stroke-width="1.5" stroke-linecap="round" stroke-linejoin="round"/>
<path d="M2 9V13.947C2 16.329 2 17.52 2.732 18.26C3.219 18.752 3.903 18.917 5 18.972M12.427 5C13.34 5.3 14.057 6.024 14.353 6.947C14.5 7.403 14.5 7.967 14.5 9.097C14.5 9.849 14.5 10.225 14.598 10.529C14.6944 10.8314 14.8609 11.1066 15.0841 11.3322C15.3073 11.5578 15.5807 11.7274 15.882 11.827C16.183 11.926 16.555 11.926 17.3 11.926H22V13.947C22 16.329 22 17.52 21.268 18.26C20.781 18.752 20.097 18.917 19 18.972M9 19H15" stroke="#F0F1F1" stroke-width="1.5" stroke-linecap="round" stroke-linejoin="round"/>
<path d="M14.5 7H16.321C17.777 7 18.504 7 19.096 7.354C19.689 7.707 20.034 8.348 20.724 9.63L22 12M7.327 8L8.813 6.826C9.604 6.2 10 5.888 10 5.5M10 5.5C10 5.112 9.604 4.8 8.813 4.174L7.327 3M10 5.5H2" stroke="#F0F1F1" stroke-width="1.5" stroke-linecap="round" stroke-linejoin="round"/>
</svg>
