<svg width="24" height="24" viewBox="0 0 24 24" fill="none" xmlns="http://www.w3.org/2000/svg">
<path d="M8.50022 14.4999H15.5002M8.50022 9.49994H12.0002M14.1702 20.8899C18.3542 20.6129 21.6862 17.2329 21.9602 12.9899C22.0132 12.1599 22.0132 11.2999 21.9602 10.4699C21.6862 6.22794 18.3542 2.84994 14.1702 2.57094C12.7251 2.4757 11.2753 2.4757 9.83022 2.57094C5.64622 2.84894 2.31422 6.22794 2.04022 10.4709C1.98725 11.3101 1.98725 12.1518 2.04022 12.9909C2.14022 14.5359 2.82322 15.9669 3.62822 17.1749C4.09522 18.0199 3.78722 19.0749 3.30022 19.9979C2.95022 20.6629 2.77422 20.9949 2.91522 21.2349C3.05522 21.4749 3.37022 21.4829 3.99922 21.4979C5.24422 21.5279 6.08322 21.1759 6.74922 20.6849C7.12622 20.4059 7.31522 20.2669 7.44522 20.2509C7.57522 20.2349 7.83222 20.3409 8.34422 20.5509C8.80422 20.7409 9.33922 20.8579 9.82922 20.8909C11.2542 20.9849 12.7432 20.9849 14.1712 20.8909" stroke="#6C727E" stroke-width="1.5" stroke-linecap="round" stroke-linejoin="round"/>
</svg>
