<svg width="24" height="24" viewBox="0 0 24 24" fill="none" xmlns="http://www.w3.org/2000/svg">
<path d="M15.5 12C15.5 12.4596 15.4095 12.9148 15.2336 13.3394C15.0577 13.764 14.7999 14.1499 14.4749 14.4749C14.1499 14.7999 13.764 15.0577 13.3394 15.2336C12.9148 15.4095 12.4596 15.5 12 15.5C11.5404 15.5 11.0852 15.4095 10.6606 15.2336C10.236 15.0577 9.85013 14.7999 9.52513 14.4749C9.20012 14.1499 8.94231 13.764 8.76642 13.3394C8.59053 12.9148 8.5 12.4596 8.5 12C8.5 11.0717 8.86875 10.1815 9.52513 9.52513C10.1815 8.86875 11.0717 8.5 12 8.5C12.9283 8.5 13.8185 8.86875 14.4749 9.52513C15.1313 10.1815 15.5 11.0717 15.5 12Z" stroke="#6C727E" stroke-width="1.5" stroke-linecap="round" stroke-linejoin="round"/>
<path d="M21.011 14.0971C21.533 13.9561 21.794 13.8851 21.897 13.7511C22 13.6161 22 13.4001 22 12.9671V11.0331C22 10.6001 22 10.3831 21.897 10.2491C21.794 10.1151 21.533 10.0441 21.011 9.90408C19.061 9.37808 17.84 7.33908 18.343 5.40108C18.482 4.86808 18.551 4.60108 18.485 4.44508C18.419 4.28908 18.229 4.18108 17.85 3.96608L16.125 2.98608C15.753 2.77608 15.567 2.67008 15.4 2.69208C15.233 2.71408 15.044 2.90208 14.667 3.27908C13.208 4.73408 10.794 4.73408 9.334 3.27908C8.957 2.90308 8.769 2.71508 8.602 2.69208C8.435 2.67008 8.249 2.77508 7.877 2.98708L6.152 3.96608C5.772 4.18108 5.582 4.28908 5.517 4.44608C5.451 4.60108 5.52 4.86808 5.658 5.40108C6.161 7.33908 4.94 9.37808 2.989 9.90408C2.467 10.0441 2.206 10.1141 2.103 10.2491C2 10.3841 2 10.6001 2 11.0331V12.9671C2 13.4001 2 13.6171 2.103 13.7511C2.206 13.8851 2.467 13.9561 2.989 14.0971C4.939 14.6231 6.16 16.6621 5.657 18.5991C5.518 19.1321 5.449 19.3991 5.515 19.5551C5.581 19.7111 5.771 19.8191 6.15 20.0351L7.875 21.0131C8.247 21.2251 8.433 21.3301 8.6 21.3081C8.767 21.2861 8.956 21.0981 9.333 20.7211C10.793 19.2641 13.209 19.2641 14.669 20.7211C15.046 21.0971 15.234 21.2851 15.401 21.3081C15.568 21.3301 15.754 21.2251 16.127 21.0131L17.851 20.0341C18.231 19.8191 18.421 19.7111 18.486 19.5541C18.551 19.3971 18.483 19.1321 18.345 18.5991C17.841 16.6621 19.061 14.6231 21.011 14.0971Z" stroke="#6C727E" stroke-width="1.5" stroke-linecap="round" stroke-linejoin="round"/>
</svg>
