<svg width="24" height="24" viewBox="0 0 24 24" fill="none" xmlns="http://www.w3.org/2000/svg">
<path d="M2.96729 10.4961V15.4981C2.96729 18.3281 2.96729 19.7421 3.84529 20.6211C4.72529 21.5011 6.13829 21.5011 8.96729 21.5011H14.9673C17.7953 21.5011 19.2093 21.5011 20.0883 20.6211C20.9673 19.7421 20.9673 18.3271 20.9673 15.4981V10.4961" stroke="#6C727E" stroke-width="1.5" stroke-linecap="round" stroke-linejoin="round"/>
<path d="M14.967 16.993C14.283 17.6 13.194 17.993 11.967 17.993C10.74 17.993 9.65104 17.6 8.96704 16.993M10.104 8.41799C9.82204 9.437 8.79604 11.194 6.84804 11.448C5.12804 11.673 3.82204 10.922 3.48904 10.608C3.12204 10.353 2.28404 9.53799 2.07904 9.02999C1.87404 8.51999 2.11304 7.41699 2.28404 6.96699L2.96704 4.98899C3.13404 4.49199 3.52504 3.31699 3.92504 2.91899C4.32504 2.52099 5.13504 2.50399 5.46904 2.50399H12.475C14.278 2.52999 18.221 2.48799 19 2.50399C19.78 2.51999 20.248 3.17399 20.385 3.45399C21.548 6.26999 22 7.88399 22 8.56999C21.848 9.30399 21.22 10.686 19 11.295C16.693 11.927 15.385 10.697 14.975 10.225M9.15504 10.225C9.48004 10.624 10.499 11.427 11.975 11.447C13.452 11.467 14.727 10.437 15.18 9.91999C15.308 9.76699 15.585 9.31399 15.873 8.41699" stroke="#6C727E" stroke-width="1.5" stroke-linecap="round" stroke-linejoin="round"/>
</svg>
